# File created by Blade
# Date/Time:  Wed Jan 21 16:02:01 2015
# Frame Rate: 120.000 fps
#------------------------------------------------------
:FULLY-SPECIFIED
:DEGREES
1291
root 17.620630 32.664395 -16.276343 -172.081510 4.112492 -178.198907
Spine -14.785974 7.480909 19.368902
Head 9.659585 1.607072 -18.213761
LeftShoulder -11.816157 -27.179817 -5.478407
LeftArm -37.404743 -11.500575 -59.138125
LeftForeArm 3.925474 -0.000000 7.083776
LeftHand -1.872272 -0.000000 2.351619
LeftHandThumb1 -26.253704 0.000000 33.147579
RightShoulder -9.965014 17.364148 -41.486936
RightArm 42.317892 51.119629 -8.303979
RightForeArm -43.530310 0.000000 17.399244
RightHand -2.673491 0.000000 -25.450079
RightHandThumb1 -24.326973 -0.000000 -32.862282
LeftUpLeg 10.208400 2.345579 -20.492292
LeftLeg -1.473036 -0.000000 0.000000
LeftFoot -31.990585 17.346880 -14.662306
LeftToeBase 21.047044 -0.000000 -0.000000
RightUpLeg -21.999295 11.444819 18.855047
RightLeg -2.037302 -0.000000 0.000000
RightFoot 0.443425 -34.492407 -4.254553
RightToeBase 15.911808 -0.000000 -0.000000
1292
root 17.621145 32.665563 -16.280273 -172.091622 4.108133 -178.189909
Spine -14.775059 7.470960 19.354276
Head 9.715974 1.540125 -18.175641
LeftShoulder -11.805752 -27.171268 -5.469238
LeftArm -37.386153 -11.513023 -59.117918
LeftForeArm 3.953466 -0.000000 7.061848
LeftHand -1.849696 0.000000 2.324064
LeftHandThumb1 -26.253704 0.000000 33.147579
RightShoulder -9.969135 17.358377 -41.472841
RightArm 42.258815 51.040941 -8.326874
RightForeArm -43.462334 -0.000000 17.417374
RightHand -2.605850 -0.000000 -25.561913
RightHandThumb1 -24.326973 -0.000000 -32.862282
LeftUpLeg 10.205340 2.356225 -20.477693
LeftLeg -1.433819 -0.000000 0.000000
LeftFoot -32.097263 17.310611 -14.763116
LeftToeBase 21.340131 -0.000000 -0.000000
RightUpLeg -22.005449 11.466817 18.857557
RightLeg -1.996948 -0.000000 0.000000
RightFoot 0.394043 -34.555116 -4.185166
RightToeBase 15.812405 -0.000000 -0.000000
1293
root 17.622252 32.666493 -16.284704 -172.098515 4.103777 -178.178537
Spine -14.770385 7.456766 19.332968
Head 9.772696 1.460324 -18.139706
LeftShoulder -11.803848 -27.161051 -5.448828
LeftArm -37.366572 -11.517857 -59.107708
LeftForeArm 3.957885 -0.000000 7.048378
LeftHand -1.845996 -0.000000 2.320295
LeftHandThumb1 -26.253704 0.000000 33.147579
RightShoulder -9.958646 17.338978 -41.442636
RightArm 42.180003 50.980242 -8.358334
RightForeArm -43.482677 -0.000000 17.443270
RightHand -2.598383 -0.000000 -25.495506
RightHandThumb1 -24.326973 -0.000000 -32.862282
LeftUpLeg 10.200263 2.362094 -20.458588
LeftLeg -1.390642 -0.000000 0.000000
LeftFoot -32.200941 17.264520 -14.857549
LeftToeBase 21.570312 -0.000000 -0.000000
RightUpLeg -22.009579 11.467131 18.870339
RightLeg -1.957054 -0.000000 0.000000
RightFoot 0.341006 -34.562146 -4.156091
RightToeBase 15.850360 -0.000000 -0.000000
1294
root 17.623886 32.667916 -16.288931 -172.113945 4.093449 -178.167935
Spine -14.756673 7.428646 19.325001
Head 9.838619 1.436408 -18.096969
LeftShoulder -11.795326 -27.202645 -5.448351
LeftArm -37.401807 -11.517671 -59.048530
LeftForeArm 3.976822 -0.000000 7.047222
LeftHand -1.836058 -0.000000 2.287871
LeftHandThumb1 -26.253704 0.000000 33.147579
RightShoulder -9.948233 17.310084 -41.407559
RightArm 42.048263 50.873004 -8.518255
RightForeArm -43.400018 -0.000000 17.417956
RightHand -2.594026 0.000000 -25.442052
RightHandThumb1 -24.326973 -0.000000 -32.862282
LeftUpLeg 10.198657 2.393045 -20.434691
LeftLeg -1.342868 -0.000000 0.000000
LeftFoot -32.338008 17.203997 -14.993277
LeftToeBase 21.916161 -0.000000 -0.000000
RightUpLeg -21.993424 11.472589 18.878906
RightLeg -1.946894 -0.000000 0.000000
RightFoot 0.307465 -34.577639 -4.110984
RightToeBase 15.813916 -0.000000 -0.000000
1295
root 17.625195 32.668228 -16.293829 -172.117588 4.089112 -178.148642
Spine -14.752871 7.423719 19.300456
Head 9.901166 1.351013 -18.031034
LeftShoulder -11.803508 -27.225587 -5.402978
LeftArm -37.410170 -11.540848 -59.018471
LeftForeArm 3.995910 -0.000000 7.034074
LeftHand -1.835288 -0.000000 2.260061
LeftHandThumb1 -26.253704 0.000000 33.147579
RightShoulder -9.914953 17.352935 -41.383671
RightArm 41.993730 50.798477 -8.505677
RightForeArm -43.524250 -0.000000 17.413858
RightHand -2.588960 -0.000000 -25.308352
RightHandThumb1 -24.326973 -0.000000 -32.862282
LeftUpLeg 10.188038 2.395517 -20.412570
LeftLeg -1.295279 -0.000000 0.000000
LeftFoot -32.445710 17.232477 -15.095049
LeftToeBase 22.032948 -0.000000 -0.000000
RightUpLeg -21.991882 11.463657 18.907253
RightLeg -1.922713 -0.000000 0.000000
RightFoot 0.260175 -34.612527 -4.066604
RightToeBase 15.677754 -0.000000 -0.000000
